<svg xmlns="http://www.w3.org/2000/svg" width="16" height="16" viewBox="0 0 16 16">
  <path fill="white" d="M7.99996 0C3.584 0 0 3.58267 0 8.00133C0 11.7727 2.83667 14.4253 6.75 14.968V11.2307C5.20667 10.932 4.94133 9.90733 4.94133 9.90733C4.93733 9.90333 4.932 9.898 4.92733 9.89333C4.56067 9.29667 3.836 8.48533 2.976 8.27733C2.72533 8.216 2.36267 8.00933 2.784 7.98733C3.17933 7.96533 3.672 8.32067 3.86533 8.65867C4.56533 9.85333 5.808 9.54467 6.00333 9.42933C6.09267 9.02933 6.32667 8.77667 6.58667 8.6C4.16267 8.4 2.666 7.40267 2.666 5.28267C2.666 4.48333 2.99733 3.838 3.52533 3.43267C3.45533 3.25067 3.19933 2.36333 3.692 1.78533C3.692 1.78533 4.314 1.568 5.32 2.312C5.32 2.312 5.992 2.11733 6.78267 2.66733C7.014 2.58467 7.25867 2.544 7.50133 2.54333C7.744 2.544 7.988 2.58467 8.21933 2.66733C9.01 2.11733 9.682 2.312 9.682 2.312C10.688 1.568 11.31 1.78533 11.31 1.78533C11.8033 2.36333 11.5473 3.25067 11.4787 3.43267C12.0067 3.838 12.338 4.48333 12.338 5.28267C12.338 7.408 10.838 8.39533 8.41996 8.59333C8.73996 8.81333 9.01996 9.11333 9.24996 9.48867C9.51996 9.89733 9.74996 10.932 9.74996 11.2387V14.968C13.6633 14.4253 16 11.7727 16 8.00133C16 3.58267 12.416 0 7.99996 0Z"/>
</svg>
